OpenSim_Sub03_CSBaseline_GRF.mot
version=1
nRows=46
nColumns=19
inDegrees=no
endheader
time	lFx	lFy	lFz	lCOPx	lCOPy	lCOPz	rFx	rFy	rFz	rCOPx	rCOPy	rCOPz	lMx	lMy	lMz	rMx	rMy	rMz
46.44000000	50.37079528	777.51920548	79.15951508	1.07093302	0	-0.60539318	-4.53073738	5.78725912	-0.79404047	-0.00632273	0	0.00191863	0	6.78021471	0	0	0.00786242	-0.00000000
46.45000000	54.81536611	779.09258936	78.30049596	1.06471653	0	-0.60502151	-5.29684512	5.83540233	-0.81766642	-0.02089503	0	0.00614626	0	6.75818495	0	0	0.01259902	-0.00000000
46.46000000	59.54987437	778.42407550	77.29432385	1.05843361	0	-0.60461181	-6.92181399	5.67483157	-0.93119364	-0.03994001	0	0.01152537	0	6.64884740	0	0	0.00872533	0.00000000
46.47000000	64.15747981	775.49390211	76.33702949	1.05216016	0	-0.60420307	-9.77574664	6.29055445	-1.36485473	-0.04293952	0	0.01194862	0	6.47313155	0	0	-0.02108440	-0.00000000
46.48000000	68.69468519	769.74005890	75.42570996	1.04580778	0	-0.60376873	-13.35219416	10.11112409	-2.37912878	0.02010166	0	-0.00715364	0	6.28560624	0	0	-0.09757972	-0.00000000
46.49000000	73.41248482	760.44168476	74.41388035	1.03932722	0	-0.60326324	-15.68346185	22.12662891	-4.16274061	0.22430978	0	-0.06718974	0	6.09779696	0	0	-0.21853343	0.00000000
46.50000000	78.26849232	747.04923463	73.09200566	1.03290013	0	-0.60269298	-13.56375050	50.06136679	-6.43734817	0.60990973	0	-0.17839843	0	5.85648882	0	0	-0.29845309	0.00000000
46.51000000	82.94841662	728.97450887	71.22946376	1.02678085	0	-0.60207059	-5.94089878	99.66030272	-8.59777495	1.03842181	0	-0.29823358	0	5.54850437	0	0	-0.10629980	-0.00000000
46.52000000	87.28360962	705.23083976	68.64082219	1.02092070	0	-0.60133278	-0.08168363	165.79398085	-11.03202742	1.30490569	0	-0.37021530	0	5.19650049	0	0	0.49946911	0
46.53000000	91.23313195	674.50723232	65.13806298	1.01521203	0	-0.60042032	-4.66276403	232.50269392	-15.30697794	1.40550186	0	-0.39646679	0	4.83509314	0	0	0.92606312	0
46.54000000	94.52551372	635.65994350	60.63023741	1.00962297	0	-0.59926330	-18.45122518	285.64484484	-20.06197204	1.41688397	0	-0.39860043	0	4.49150682	0	0	0.84957341	0
46.55000000	96.49326795	588.34231506	55.18983133	1.00428760	0	-0.59778353	-35.11520247	322.20967798	-22.72846596	1.40067306	0	-0.39323480	0	4.15726698	0	0	0.49803032	0.00000000
46.56000000	96.34982745	532.78345818	49.04239455	0.99922343	0	-0.59591436	-50.37409106	348.31494429	-23.72475340	1.38458023	0	-0.38822698	0	3.76702929	0	0	-0.00280986	0.00000000
46.57000000	93.39559281	469.54779503	42.37146166	0.99521318	0	-0.59374482	-62.92133123	372.91838361	-25.21790364	1.37451486	0	-0.38542545	0	3.28331419	0	0	-0.40618803	0
46.58000000	86.88558543	400.13885908	35.30361064	0.99510972	0	-0.59164471	-73.03206281	402.85735924	-28.98478123	1.36842465	0	-0.38418034	0	2.67727757	0	0	-0.70764367	-0.00000000
46.59000000	76.38090994	327.71362088	28.15909575	1.00407935	0	-0.58994842	-81.35043757	440.54820641	-34.87513729	1.36370005	0	-0.38362500	0	1.97889983	0	0	-1.04840146	-0.00000000
46.60000000	62.51338387	256.64277369	21.56845283	1.02749215	0	-0.58798030	-88.29041970	485.04211753	-41.12912869	1.35900501	0	-0.38322318	0	1.36065704	0	0	-1.38258207	0
46.61000000	46.92015710	191.33250996	16.20257510	1.06450620	0	-0.58208786	-93.77300621	534.48768400	-46.59150839	1.35361764	0	-0.38273296	0	0.95148017	0	0	-1.73386557	0
46.62000000	31.41240266	135.72647549	12.42702009	1.09667768	0	-0.56247940	-97.28276698	586.94398355	-51.11046060	1.34722268	0	-0.38227092	0	0.80190415	0	0	-2.13845658	-0.00000000
46.63000000	17.59699960	91.98606164	10.07041883	1.07576741	0	-0.51090671	-98.49285766	640.34456490	-54.69313784	1.34000886	0	-0.38190484	0	0.91427589	0	0	-2.53089923	0
46.64000000	6.68756009	59.62754436	8.66783725	0.93016242	0	-0.40710685	-97.51656537	691.91981808	-57.40939391	1.33230371	0	-0.38158625	0	1.03526904	0	0	-2.86626805	0
46.65000000	-0.79794145	36.32477413	7.68526078	0.62664350	0	-0.25377743	-94.60583462	738.14466428	-59.49710030	1.32439571	0	-0.38129885	0	0.86913329	0	0	-3.13445852	0
46.66000000	-5.15677637	19.60803619	6.80038676	0.28894549	0	-0.10772133	-90.15678151	775.53771164	-61.34274003	1.31646299	0	-0.38104916	0	0.48500364	0	0	-3.33361546	0.00000000
46.67000000	-6.76505099	7.41308690	5.63347216	0.06834243	0	-0.02015641	-84.73238977	801.87522589	-63.20354227	1.30871896	0	-0.38079528	0	0.16304905	0	0	-3.50090122	0
46.68000000	-5.76854755	-1.81357812	3.97471184	-0.02107011	0	0.01214849	-78.80596081	816.92079287	-65.20724348	1.30114044	0	-0.38047306	0	0.00362381	0	0	-3.68574238	-0.00000000
46.69000000	-3.33181302	-8.49398488	2.18091520	-0.03502035	0	0.01511571	-72.58040785	822.12371650	-67.14241911	1.29356455	0	-0.38009840	0	-0.04007624	0	0	-3.81702833	0.00000000
46.70000000	-1.11357239	-12.46912773	1.03110640	-0.02269384	0	0.00898984	-66.12800077	819.56127323	-68.22988161	1.28597437	0	-0.37970142	0	-0.03328467	0	0	-3.78425444	0
46.71000000	0.10874659	-14.09523711	0.56301977	-0.00907122	0	0.00326565	-59.42623138	810.92940627	-67.79312178	1.27844935	0	-0.37931903	0	-0.01628137	0	0	-3.62530068	0.00000000
46.72000000	0.51407728	-14.29058287	0.52720683	-0.00133279	0	0.00026355	-52.54570896	797.33687565	-65.87812064	1.27099273	0	-0.37897439	0	-0.00435609	0	0	-3.40528630	0.00000000
46.73000000	0.51261912	-13.95844639	0.66168302	0.00131713	0	-0.00064862	-45.81067263	779.91515419	-62.96491975	1.26378391	0	-0.37862023	0	0.00077974	0	0	-3.09460215	0
46.74000000	0.37390343	-13.59172078	0.74193397	0.00141400	0	-0.00059274	-39.63511855	760.02515478	-59.73116672	1.25699992	0	-0.37817595	0	0.00177780	0	0	-2.71886361	0
46.75000000	0.24006230	-13.29700119	0.78634655	0.00079330	0	-0.00030710	-33.95714794	739.15881158	-56.91744559	1.25051209	0	-0.37762183	0	0.00122849	0	0	-2.32157937	0
46.76000000	0.16209606	-13.06663280	0.78378042	0.00026704	0	-0.00009142	-28.52163735	719.09754176	-55.08092783	1.24428890	0	-0.37697495	0	0.00052217	0	0	-1.91485936	0
46.77000000	0.11725333	-12.94191110	0.78061473	0.00000621	0	0.00000725	-23.53308390	701.48266889	-54.20675092	1.23829019	0	-0.37624324	0	0.00009725	0	0	-1.52305389	0.00000000
46.78000000	0.06585650	-12.91189342	0.77629598	-0.00006542	0	0.00002995	-19.26526626	687.52360994	-54.01247250	1.23246710	0	-0.37542832	0	-0.00005926	0	0	-1.20346558	0
46.79000000	0.01941835	-12.98148611	0.72374033	-0.00005441	0	0.00002225	-15.78537649	677.46996182	-54.36692733	1.22696738	0	-0.37456149	0	-0.00007345	0	0	-0.94106409	0
46.80000000	-0.01171062	-13.09989118	0.65417816	-0.00002664	0	0.00001005	-13.09220940	670.86697078	-55.04501703	1.22197966	0	-0.37365286	0	-0.00004362	0	0	-0.69574765	0
46.81000000	-0.02555468	-13.20371534	0.60360273	-0.00000714	0	0.00000224	-10.88813355	667.76114371	-55.74801979	1.21750695	0	-0.37272255	0	-0.00001582	0	0	-0.50902245	-0.00000000
46.82000000	-0.03831433	-13.28705587	0.57908100	0.00000126	0	-0.00000084	-9.10360977	668.96536951	-56.32184872	1.21352122	0	-0.37181081	0	-0.00000126	0	0	-0.31104582	-0.00000000
46.83000000	-0.06069067	-13.37259600	0.52818144	0.00000290	0	-0.00000127	-8.02814671	675.01370970	-56.64483460	1.20991642	0	-0.37092513	0	0.00000316	0	0	-0.05511143	0
46.84000000	-0.08389992	-13.48365948	0.43821915	0.00000201	0	-0.00000080	-7.86710435	685.34429083	-56.64097585	1.20671872	0	-0.37002556	0	0.00000288	0	0	0.21336594	0
46.85000000	-0.09242140	-13.58389449	0.35185810	0.00000086	0	-0.00000031	-8.52114517	697.80664871	-56.47581307	1.20400956	0	-0.36910658	0	0.00000149	0	0	0.44740141	0.00000000
46.86000000	-0.09952848	-13.59097593	0.28688459	0.00000016	0	-0.00000004	-9.32781329	709.70539666	-56.44918084	1.20165202	0	-0.36817309	0	0.00000045	0	0	0.65270691	-0.00000000
46.87000000	-0.10224226	-13.45895699	0.25245299	-0.00000009	0	0.00000005	-9.51566916	719.53443205	-56.84815269	1.19928733	0	-0.36721871	0	-0.00000002	0	0	0.81663317	-0.00000000
46.88000000	-0.10857707	-13.25173583	0.21915493	-0.00000011	0	0.00000005	-8.50239402	727.28152511	-57.75364109	1.19646051	0	-0.36624961	0	-0.00000011	0	0	0.94496568	0.00000000
46.89000000	-0.13740830	-13.08895633	0.19438561	-0.00000008	0	0.00000003	-6.25685074	733.68173593	-59.07149843	1.19298066	0	-0.36530886	0	-0.00000008	0	0	1.08382844	0
